# Blender v2.82 (sub 7) OBJ File: ''
# www.blender.org
mtllib cubeTex.mtl
o Cube
v -1.000000 1.000000 1.000000
v -1.000000 -1.000000 1.000000
v -1.000000 1.000000 -1.000000
v -1.000000 -1.000000 -1.000000
v 1.000000 1.000000 1.000000
v 1.000000 -1.000000 1.000000
v 1.000000 1.000000 -1.000000
v 1.000000 -1.000000 -1.000000
vt 0.675414 0.324554
vt 0.335843 0.333081
vt 0.327569 0.003594
vt 0.667140 -0.004933
vt 0.329095 -0.002645
vt 0.332739 0.328194
vt 0.001900 0.331838
vt -0.001744 0.000999
vt 0.664031 0.335237
vt 0.664824 0.663524
vt 0.332651 0.660430
vt 0.331858 0.332143
vt 0.006457 0.342591
vt 0.323341 0.342591
vt 0.323341 0.659474
vt 0.006457 0.659474
vt 1.001356 0.336840
vt 0.999982 0.663236
vt 0.673586 0.661862
vt 0.674960 0.335466
vt 0.987183 0.015408
vt 0.988486 0.323882
vt 0.680011 0.325185
vt 0.678708 0.016711
vn 0.0000 1.0000 0.0000
vn 0.0000 0.0000 -1.0000
vn 1.0000 0.0000 0.0000
vn 0.0000 -1.0000 0.0000
vn -1.0000 0.0000 0.0000
vn 0.0000 0.0000 1.0000
usemtl Material
s off
f 1/1/1 5/2/1 7/3/1 3/4/1
f 4/5/2 3/6/2 7/7/2 8/8/2
f 8/9/3 7/10/3 5/11/3 6/12/3
f 6/13/4 2/14/4 4/15/4 8/16/4
f 2/17/5 1/18/5 3/19/5 4/20/5
f 6/21/6 5/22/6 1/23/6 2/24/6
